<svg width="27" height="30" viewBox="0 0 27 30" fill="none" xmlns="http://www.w3.org/2000/svg">
<path d="M5.83334 13.125H8.75001V16.0417H5.83334V13.125ZM5.83334 18.9583H8.75001V21.875H5.83334V18.9583ZM11.6667 13.125H14.5833V16.0417H11.6667V13.125ZM11.6667 18.9583H14.5833V21.875H11.6667V18.9583ZM17.5 13.125H20.4167V16.0417H17.5V13.125ZM17.5 18.9583H20.4167V21.875H17.5V18.9583Z" fill="white"/>
<path d="M2.91667 29.1667H23.3333C24.9419 29.1667 26.25 27.8585 26.25 26.25V5.83333C26.25 4.22479 24.9419 2.91667 23.3333 2.91667H20.4167V0H17.5V2.91667H8.75V0H5.83333V2.91667H2.91667C1.30813 2.91667 0 4.22479 0 5.83333V26.25C0 27.8585 1.30813 29.1667 2.91667 29.1667ZM23.3333 8.75L23.3348 26.25H2.91667V8.75H23.3333Z" fill="white"/>
</svg>
