<svg width="30" height="30" viewBox="0 0 30 30" fill="none" xmlns="http://www.w3.org/2000/svg">
<path d="M27.7083 26.25H26.25V4.375C26.25 3.98823 26.0964 3.61729 25.8229 3.3438C25.5494 3.07031 25.1784 2.91667 24.7917 2.91667C24.4049 2.91667 24.034 3.07031 23.7605 3.3438C23.487 3.61729 23.3333 3.98823 23.3333 4.375V26.25H20.4167V10.2083C20.4167 9.82156 20.263 9.45063 19.9895 9.17714C19.716 8.90365 19.3451 8.75 18.9583 8.75C18.5716 8.75 18.2006 8.90365 17.9271 9.17714C17.6536 9.45063 17.5 9.82156 17.5 10.2083V26.25H14.5833V16.0417C14.5833 15.6549 14.4297 15.284 14.1562 15.0105C13.8827 14.737 13.5118 14.5833 13.125 14.5833C12.7382 14.5833 12.3673 14.737 12.0938 15.0105C11.8203 15.284 11.6667 15.6549 11.6667 16.0417V26.25H8.75V21.875C8.75 21.4882 8.59636 21.1173 8.32286 20.8438C8.04937 20.5703 7.67844 20.4167 7.29167 20.4167C6.90489 20.4167 6.53396 20.5703 6.26047 20.8438C5.98698 21.1173 5.83333 21.4882 5.83333 21.875V26.25H2.91667V1.45833C2.91667 1.07156 2.76302 0.700626 2.48953 0.427136C2.21604 0.153645 1.84511 0 1.45833 0C1.07156 0 0.700626 0.153645 0.427136 0.427136C0.153645 0.700626 0 1.07156 0 1.45833V27.7083C0 28.0951 0.153645 28.466 0.427136 28.7395C0.700626 29.013 1.07156 29.1667 1.45833 29.1667H27.7083C28.0951 29.1667 28.466 29.013 28.7395 28.7395C29.013 28.466 29.1667 28.0951 29.1667 27.7083C29.1667 27.3216 29.013 26.9506 28.7395 26.6771C28.466 26.4036 28.0951 26.25 27.7083 26.25Z" fill="white"/>
</svg>
