<svg width="27" height="24" viewBox="0 0 27 24" fill="none" xmlns="http://www.w3.org/2000/svg">
<path d="M7.36223 0.196068C7.30344 0.133921 7.23358 0.084611 7.15666 0.0509652C7.07974 0.0173195 6.99727 0 6.91398 0C6.8307 0 6.74823 0.0173195 6.67131 0.0509652C6.59439 0.084611 6.52453 0.133921 6.46574 0.196068L3.10761 3.71305L1.91054 2.48425C1.85175 2.4221 1.78189 2.37279 1.70497 2.33914C1.62805 2.3055 1.54558 2.28818 1.4623 2.28818C1.37901 2.28818 1.29654 2.3055 1.21962 2.33914C1.1427 2.37279 1.07285 2.4221 1.01405 2.48425L0.186124 3.35752C0.127129 3.41945 0.0803199 3.49304 0.0483805 3.57407C0.0164411 3.6551 0 3.74197 0 3.82971C0 3.91745 0.0164411 4.00432 0.0483805 4.08535C0.0803199 4.16638 0.127129 4.23997 0.186124 4.3019L2.69576 6.93505C2.82102 7.06049 2.98725 7.13044 3.16008 7.13044C3.33291 7.13044 3.49914 7.06049 3.62441 6.93505L4.44654 6.06733L8.25397 2.05705C8.37259 1.93199 8.43963 1.76269 8.44051 1.58589C8.4414 1.40909 8.37608 1.23905 8.25871 1.11267L7.36223 0.196068ZM7.36223 9.03935C7.30344 8.97721 7.23358 8.9279 7.15666 8.89425C7.07974 8.86061 6.99727 8.84329 6.91398 8.84329C6.8307 8.84329 6.74823 8.86061 6.67131 8.89425C6.59439 8.9279 6.52453 8.97721 6.46574 9.03935L3.10761 12.5791L1.91054 11.3514C1.85175 11.2893 1.78189 11.24 1.70497 11.2063C1.62805 11.1727 1.54558 11.1554 1.4623 11.1554C1.37901 11.1554 1.29654 11.1727 1.21962 11.2063C1.1427 11.24 1.07285 11.2893 1.01405 11.3514L0.186124 12.223C0.127129 12.285 0.0803199 12.3585 0.0483805 12.4396C0.0164411 12.5206 0 12.6075 0 12.6952C0 12.783 0.0164411 12.8698 0.0483805 12.9509C0.0803199 13.0319 0.127129 13.1055 0.186124 13.1674L2.68943 15.8061C2.81461 15.9315 2.98075 16.0014 3.15349 16.0014C3.32624 16.0014 3.49237 15.9315 3.61755 15.8061L4.44548 14.9345L8.25291 10.9226C8.37109 10.7984 8.43789 10.63 8.43878 10.4542C8.43967 10.2783 8.37457 10.1092 8.25766 9.98373L7.36223 9.03935ZM3.37498 18.667C1.97804 18.667 0.812609 19.8614 0.812609 21.3335C0.812609 22.8056 1.97909 24 3.37498 24C4.04631 24 4.69014 23.7191 5.16484 23.219C5.63954 22.7189 5.90623 22.0407 5.90623 21.3335C5.90623 20.6263 5.63954 19.9481 5.16484 19.448C4.69014 18.948 4.04631 18.667 3.37498 18.667ZM26.1562 19.5559H10.9687C10.745 19.5559 10.5303 19.6495 10.3721 19.8162C10.2139 19.9829 10.125 20.209 10.125 20.4447V22.2223C10.125 22.4581 10.2139 22.6842 10.3721 22.8508C10.5303 23.0175 10.745 23.1112 10.9687 23.1112H26.1562C26.38 23.1112 26.5946 23.0175 26.7529 22.8508C26.9111 22.6842 27 22.4581 27 22.2223V20.4447C27 20.209 26.9111 19.9829 26.7529 19.8162C26.5946 19.6495 26.38 19.5559 26.1562 19.5559ZM26.1562 1.77929H10.9687C10.745 1.77929 10.5303 1.87294 10.3721 2.03963C10.2139 2.20631 10.125 2.43239 10.125 2.66812V4.44578C10.125 4.68151 10.2139 4.90759 10.3721 5.07427C10.5303 5.24096 10.745 5.33461 10.9687 5.33461H26.1562C26.38 5.33461 26.5946 5.24096 26.7529 5.07427C26.9111 4.90759 27 4.68151 27 4.44578V2.66812C27 2.43239 26.9111 2.20631 26.7529 2.03963C26.5946 1.87294 26.38 1.77929 26.1562 1.77929ZM26.1562 10.6676H10.9687C10.745 10.6676 10.5303 10.7612 10.3721 10.9279C10.2139 11.0946 10.125 11.3207 10.125 11.5564V13.3341C10.125 13.5698 10.2139 13.7959 10.3721 13.9626C10.5303 14.1292 10.745 14.2229 10.9687 14.2229H26.1562C26.38 14.2229 26.5946 14.1292 26.7529 13.9626C26.9111 13.7959 27 13.5698 27 13.3341V11.5564C27 11.3207 26.9111 11.0946 26.7529 10.9279C26.5946 10.7612 26.38 10.6676 26.1562 10.6676Z" fill="white"/>
</svg>
