<svg width="10" height="8" viewBox="0 0 10 8" fill="none" xmlns="http://www.w3.org/2000/svg">
<path d="M9.01367 1.76954C8.88277 1.46645 8.69403 1.19179 8.45801 0.960944C8.22181 0.729407 7.94332 0.545408 7.6377 0.418952C7.32078 0.287305 6.98087 0.21992 6.6377 0.22071C6.15625 0.22071 5.68652 0.352546 5.27832 0.601569C5.18066 0.66114 5.08789 0.726569 5 0.797859C4.91211 0.726569 4.81934 0.66114 4.72168 0.601569C4.31348 0.352546 3.84375 0.22071 3.3623 0.22071C3.01562 0.22071 2.67969 0.287116 2.3623 0.418952C2.05566 0.545905 1.7793 0.728523 1.54199 0.960944C1.30566 1.19153 1.11687 1.46625 0.986328 1.76954C0.850586 2.08497 0.78125 2.41993 0.78125 2.76466C0.78125 3.08985 0.847656 3.42872 0.979492 3.77344C1.08984 4.06153 1.24805 4.36036 1.4502 4.66212C1.77051 5.13966 2.21094 5.6377 2.75781 6.14259C3.66406 6.9795 4.56152 7.55763 4.59961 7.58106L4.83105 7.7295C4.93359 7.79493 5.06543 7.79493 5.16797 7.7295L5.39941 7.58106C5.4375 7.55665 6.33398 6.9795 7.24121 6.14259C7.78809 5.6377 8.22852 5.13966 8.54883 4.66212C8.75098 4.36036 8.91016 4.06153 9.01953 3.77344C9.15137 3.42872 9.21777 3.08985 9.21777 2.76466C9.21875 2.41993 9.14941 2.08497 9.01367 1.76954V1.76954Z" fill="white"/>
</svg>
