<svg width="10" height="8" viewBox="0 0 10 8" fill="none" xmlns="http://www.w3.org/2000/svg">
<path d="M3.86718 4C3.86718 4.29008 3.98242 4.56828 4.18753 4.7734C4.39265 4.97852 4.67085 5.09375 4.96093 5.09375C5.25101 5.09375 5.52921 4.97852 5.73433 4.7734C5.93945 4.56828 6.05468 4.29008 6.05468 4C6.05468 3.70992 5.93945 3.43172 5.73433 3.2266C5.52921 3.02148 5.25101 2.90625 4.96093 2.90625C4.67085 2.90625 4.39265 3.02148 4.18753 3.2266C3.98242 3.43172 3.86718 3.70992 3.86718 4V4ZM9.20117 3.74805C8.27539 1.79785 6.87597 0.816406 5 0.816406C3.12304 0.816406 1.7246 1.79785 0.798824 3.74902C0.76169 3.82765 0.742432 3.91353 0.742432 4.00049C0.742432 4.08745 0.76169 4.17332 0.798824 4.25195C1.7246 6.20215 3.12402 7.18359 5 7.18359C6.87695 7.18359 8.27539 6.20215 9.20117 4.25098C9.27636 4.09277 9.27636 3.90918 9.20117 3.74805V3.74805ZM4.96093 5.71875C4.01171 5.71875 3.24218 4.94922 3.24218 4C3.24218 3.05078 4.01171 2.28125 4.96093 2.28125C5.91015 2.28125 6.67968 3.05078 6.67968 4C6.67968 4.94922 5.91015 5.71875 4.96093 5.71875Z" fill="white"/>
</svg>
