<svg width="18" height="18" viewBox="0 0 18 18" fill="none" xmlns="http://www.w3.org/2000/svg">
<path d="M8.736 17.0795C5.0196 17.0795 2.88799 16.7946 1.95152 16.625C1.58203 16.5604 1.24159 16.3868 0.975883 16.1277C0.710171 15.8685 0.531892 15.5361 0.46496 15.175C0.291418 14.266 0 12.1983 0 8.53976C0 4.88123 0.291418 2.82951 0.46496 1.92049C0.530119 1.55493 0.709127 1.21795 0.977535 0.955576C1.24594 0.693197 1.59067 0.51821 1.96462 0.454515C2.90763 0.284872 5.05234 0 8.736 0C12.4786 0 14.5938 0.284872 15.5205 0.451314C15.8921 0.518455 16.2338 0.695246 16.4996 0.957904C16.7653 1.22056 16.9424 1.55649 17.007 1.92049C17.1806 2.84872 17.472 4.94845 17.472 8.54936C17.472 12.2111 17.1806 14.2788 17.007 15.1878C16.9399 15.5474 16.7623 15.8785 16.4979 16.1369C16.2335 16.3954 15.8949 16.569 15.527 16.6346C14.5971 16.7946 12.4819 17.0795 8.736 17.0795ZM2.38046 14.7493C3.29074 14.9094 5.27173 15.159 8.736 15.159C12.2003 15.159 14.1911 14.9094 15.0915 14.7525C15.252 13.8723 15.5074 11.9486 15.5074 8.53976C15.5471 6.46087 15.4058 4.38245 15.085 2.32699C14.1878 2.17015 12.2199 1.92049 8.736 1.92049C6.61043 1.88158 4.48533 2.01972 2.38374 2.33339C2.22002 3.22001 1.96462 5.1629 1.96462 8.53976C1.96462 11.9166 2.22002 13.8723 2.38046 14.7493Z" fill="white"/>
<path d="M13.1466 4.3019H9.43342V5.9023H13.1466V4.3019Z" fill="white"/>
<path d="M13.1466 7.1026H9.43342V8.703H13.1466V7.1026Z" fill="white"/>
<path d="M8.78839 13.1745C8.07682 13.1763 7.37194 13.0403 6.71441 12.7744C6.05687 12.5086 5.45971 12.118 4.95738 11.6254L6.11651 10.4923C6.82513 11.185 7.78624 11.5741 8.78839 11.5741C9.79054 11.5741 10.7516 11.185 11.4603 10.4923L12.6194 11.6254C12.1171 12.118 11.5199 12.5086 10.8624 12.7744C10.2048 13.0403 9.49996 13.1763 8.78839 13.1745Z" fill="white"/>
<path d="M5.60242 8.94307L4.44657 7.80998L5.78251 6.50085L4.44657 5.19492L5.60242 4.06184L8.09749 6.50085L5.60242 8.94307Z" fill="white"/>
</svg>
